<?xml version="1.0" encoding="UTF-8"?>
<svg width="431px" height="88px" viewBox="0 0 431 88" version="1.1" xmlns="http://www.w3.org/2000/svg" xmlns:xlink="http://www.w3.org/1999/xlink">
    <!-- Generator: Sketch 48.2 (47327) - http://www.bohemiancoding.com/sketch -->
    <g id="Desktop-HD-Copy" stroke="none" stroke-width="1" fill="none" fill-rule="evenodd" transform="translate(-383.000000, -105.000000)">
        <g id="Group-2" transform="translate(383.000000, 105.000000)" fill-rule="nonzero">
            <g id="giphy-large">
                <g id="Group" transform="translate(109.000000, 8.000000)" fill="#000000">
                    <rect id="Rectangle-path" x="78.593" y="2.469" width="19.915" height="68.557"></rect>
                    <polygon id="Shape" points="221.991 2.469 221.991 28.371 198.208 28.371 198.208 2.469 178.291 2.469 178.291 71.025 198.208 71.025 198.208 45.643 221.991 45.643 221.991 71.025 241.906 71.025 241.906 2.469"></polygon>
                    <polygon id="Shape" points="294.931 71.025 294.931 44.193 321.476 2.469 298.91 2.469 284.977 25.429 271.046 2.469 248.484 2.469 275.027 44.193 275.027 71.025"></polygon>
                    <path d="M148.948,2.469 C140.488,2.469 131.215,2.469 131.215,2.469 L111.307,2.469 L111.307,71.026 L131.215,71.026 L131.215,52.862 C131.215,52.862 140.488,52.862 148.948,52.862 C157.407,52.862 172.004,44.725 172.004,27.637 C172.004,10.549 157.407,2.469 148.948,2.469 Z M143.957,36.204 C141.629,36.204 131.215,36.204 131.215,36.204 L131.215,19.125 C131.215,19.125 141.629,19.125 143.957,19.125 C148.857,19.125 152.764,23.387 152.764,27.638 C152.764,31.885 148.857,36.204 143.957,36.204 Z" id="Shape"></path>
                    <path d="M67.423,58.781 L67.423,28.856 L33.785,28.856 L33.785,44.193 L51.174,44.193 L51.174,53.224 C51.174,53.224 44.764,56.498 38.778,56.498 C32.79,56.498 19.54,54.362 19.54,35.552 C19.54,19.447 32.081,16.455 38.208,16.455 C47.754,16.455 53.881,23.008 53.881,23.008 L64.86,11.467 C64.86,11.467 56.165,0.349 37.778,0.349 C19.399,0.349 0.154,11.858 0.154,36.745 C0.154,59.778 15.399,73.313 37.067,73.313 C62,73.316 67.423,58.781 67.423,58.781 Z" id="Shape"></path>
                </g>
                <g id="Group">
                    <rect id="Rectangle-path" fill="#00FF99" x="0" y="9.649" width="8.892" height="69.376"></rect>
                    <rect id="Rectangle-path" fill="#9933FF" x="62.248" y="27.434" width="8.896" height="51.591"></rect>
                    <rect id="Rectangle-path" fill="#00CCFF" x="0" y="79.025" width="71.145" height="8.894"></rect>
                    <rect id="Rectangle-path" fill="#FFFF99" x="0" y="0.754" width="44.463" height="8.895"></rect>
                    <polygon id="Shape" fill="#FF6666" points="62.248 18.543 62.248 9.649 53.359 9.649 53.359 0.754 44.463 0.754 44.463 27.434 71.145 27.434 71.145 18.543"></polygon>
                    <rect id="Rectangle-path" fill="#4C197F" x="62.248" y="27.434" width="8.896" height="8.895"></rect>
                </g>
            </g>
        </g>
    </g>
</svg>